# Tiled2Unity generated file. Do not modify by hand.
# Wavefront file for 'Lose_mesh_0002.obj'

# Vertices (Count = 176)
v -576 -896 0
v -608 -896 0
v -608 -864 0
v -576 -864 0
v -608 -896 0
v -640 -896 0
v -640 -864 0
v -608 -864 0
v -576 -928 0
v -608 -928 0
v -608 -896 0
v -576 -896 0
v -608 -928 0
v -640 -928 0
v -640 -896 0
v -608 -896 0
v -864 -928 0
v -896 -928 0
v -896 -896 0
v -864 -896 0
v -544 -960 0
v -576 -960 0
v -576 -928 0
v -544 -928 0
v -576 -960 0
v -608 -960 0
v -608 -928 0
v -576 -928 0
v -608 -960 0
v -640 -960 0
v -640 -928 0
v -608 -928 0
v -864 -960 0
v -896 -960 0
v -896 -928 0
v -864 -928 0
v -544 -992 0
v -576 -992 0
v -576 -960 0
v -544 -960 0
v -576 -992 0
v -608 -992 0
v -608 -960 0
v -576 -960 0
v -608 -992 0
v -640 -992 0
v -640 -960 0
v -608 -960 0
v -832 -992 0
v -864 -992 0
v -864 -960 0
v -832 -960 0
v -864 -992 0
v -896 -992 0
v -896 -960 0
v -864 -960 0
v -544 -1024 0
v -576 -1024 0
v -576 -992 0
v -544 -992 0
v -576 -1024 0
v -608 -1024 0
v -608 -992 0
v -576 -992 0
v -768 -1024 0
v -800 -1024 0
v -800 -992 0
v -768 -992 0
v -800 -1024 0
v -832 -1024 0
v -832 -992 0
v -800 -992 0
v -832 -1024 0
v -864 -1024 0
v -864 -992 0
v -832 -992 0
v -864 -1024 0
v -896 -1024 0
v -896 -992 0
v -864 -992 0
v -1280 -1024 0
v -1312 -1024 0
v -1312 -992 0
v -1280 -992 0
v -544 -1056 0
v -576 -1056 0
v -576 -1024 0
v -544 -1024 0
v -576 -1056 0
v -608 -1056 0
v -608 -1024 0
v -576 -1024 0
v -608 -1056 0
v -640 -1056 0
v -640 -1024 0
v -608 -1024 0
v -640 -1056 0
v -672 -1056 0
v -672 -1024 0
v -640 -1024 0
v -704 -1056 0
v -736 -1056 0
v -736 -1024 0
v -704 -1024 0
v -736 -1056 0
v -768 -1056 0
v -768 -1024 0
v -736 -1024 0
v -768 -1056 0
v -800 -1056 0
v -800 -1024 0
v -768 -1024 0
v -800 -1056 0
v -832 -1056 0
v -832 -1024 0
v -800 -1024 0
v -832 -1056 0
v -864 -1056 0
v -864 -1024 0
v -832 -1024 0
v -1248 -1056 0
v -1280 -1056 0
v -1280 -1024 0
v -1248 -1024 0
v -1280 -1056 0
v -1312 -1056 0
v -1312 -1024 0
v -1280 -1024 0
v -544 -1088 0
v -576 -1088 0
v -576 -1056 0
v -544 -1056 0
v -576 -1088 0
v -608 -1088 0
v -608 -1056 0
v -576 -1056 0
v -608 -1088 0
v -640 -1088 0
v -640 -1056 0
v -608 -1056 0
v -640 -1088 0
v -672 -1088 0
v -672 -1056 0
v -640 -1056 0
v -672 -1088 0
v -704 -1088 0
v -704 -1056 0
v -672 -1056 0
v -704 -1088 0
v -736 -1088 0
v -736 -1056 0
v -704 -1056 0
v -736 -1088 0
v -768 -1088 0
v -768 -1056 0
v -736 -1056 0
v -768 -1088 0
v -800 -1088 0
v -800 -1056 0
v -768 -1056 0
v -1280 -1088 0
v -1312 -1088 0
v -1312 -1056 0
v -1280 -1056 0
v -608 -1120 0
v -640 -1120 0
v -640 -1088 0
v -608 -1088 0
v -640 -1120 0
v -672 -1120 0
v -672 -1088 0
v -640 -1088 0
v -672 -1120 0
v -704 -1120 0
v -704 -1088 0
v -672 -1088 0

# Texture cooridinates (Count = 25)
vt 0.6666667 0
vt 1 0
vt 1 0.1666667
vt 0.6666667 0.1666667
vt 0.3333333 0.8333333
vt 0.6666667 0.8333333
vt 0.6666667 1
vt 0.3333333 1
vt 0.3333333 0.3333333
vt 0.6666667 0.3333333
vt 0.6666667 0.5
vt 0.3333333 0.5
vt 1 0.3333333
vt 1 0.5
vt 0 0.3333333
vt 0 0.5
vt 0.3333333 0.6666666
vt 0 0.6666666
vt 0.6666667 0.6666666
vt 1 0.6666666
vt 1 0.8333333
vt 0 0
vt 0.3333333 0
vt 0.3333333 0.1666667
vt 0 0.1666667

# Normal
vn 0 0 -1

# Mesh description
g Lose_mesh_0002

# Faces
f 1/1/1 2/2/1 3/3/1 4/4/1
f 5/5/1 6/6/1 7/7/1 8/8/1
f 9/9/1 10/10/1 11/11/1 12/12/1
f 13/10/1 14/13/1 15/14/1 16/11/1
f 17/15/1 18/9/1 19/12/1 20/16/1
f 21/9/1 22/10/1 23/11/1 24/12/1
f 25/1/1 26/2/1 27/3/1 28/4/1
f 29/10/1 30/13/1 31/14/1 32/11/1
f 33/15/1 34/9/1 35/12/1 36/16/1
f 37/1/1 38/2/1 39/3/1 40/4/1
f 41/5/1 42/6/1 43/7/1 44/8/1
f 45/4/1 46/3/1 47/13/1 48/10/1
f 49/16/1 50/12/1 51/17/1 52/18/1
f 53/19/1 54/20/1 55/21/1 56/6/1
f 57/9/1 58/10/1 59/11/1 60/12/1
f 61/10/1 62/13/1 63/14/1 64/11/1
f 65/16/1 66/12/1 67/17/1 68/18/1
f 69/12/1 70/11/1 71/19/1 72/17/1
f 73/19/1 74/20/1 75/21/1 76/6/1
f 77/1/1 78/2/1 79/3/1 80/4/1
f 81/11/1 82/14/1 83/20/1 84/19/1
f 85/9/1 86/10/1 87/11/1 88/12/1
f 89/17/1 90/19/1 91/6/1 92/5/1
f 93/12/1 94/11/1 95/19/1 96/17/1
f 97/11/1 98/14/1 99/20/1 100/19/1
f 101/16/1 102/12/1 103/17/1 104/18/1
f 105/12/1 106/11/1 107/19/1 108/17/1
f 109/19/1 110/20/1 111/21/1 112/6/1
f 113/9/1 114/10/1 115/11/1 116/12/1
f 117/1/1 118/2/1 119/3/1 120/4/1
f 121/1/1 122/2/1 123/3/1 124/4/1
f 125/10/1 126/13/1 127/14/1 128/11/1
f 129/22/1 130/23/1 131/24/1 132/25/1
f 133/1/1 134/2/1 135/3/1 136/4/1
f 137/23/1 138/1/1 139/4/1 140/24/1
f 141/17/1 142/19/1 143/6/1 144/5/1
f 145/12/1 146/11/1 147/19/1 148/17/1
f 149/19/1 150/20/1 151/21/1 152/6/1
f 153/22/1 154/23/1 155/24/1 156/25/1
f 157/22/1 158/23/1 159/24/1 160/25/1
f 161/4/1 162/3/1 163/13/1 164/10/1
f 165/22/1 166/23/1 167/24/1 168/25/1
f 169/23/1 170/1/1 171/4/1 172/24/1
f 173/22/1 174/23/1 175/24/1 176/25/1

